<svg width="41" height="40" viewBox="0 0 41 40" fill="none" xmlns="http://www.w3.org/2000/svg">
<path d="M9.73885 34.9591C10.7802 35.8457 12.4501 36.5236 15.0224 36.0962C15.0268 36.8575 15.0332 37.5081 15.0381 38.0139C15.0424 38.4476 15.0456 38.775 15.0456 38.9746C15.0456 39.149 14.9864 39.2948 14.8969 39.3782C14.826 39.4444 14.6658 39.5372 14.3036 39.4769C6.57601 36.8251 1 29.3357 1 20.5052C1 9.44227 9.73965 0.5 20.5 0.5C31.2603 0.5 40 9.44227 40 20.5052C40 29.3367 34.4292 36.8202 26.7065 39.4778C26.3372 39.5439 26.1784 39.4494 26.1095 39.3847C26.0204 39.3009 25.9609 39.1523 25.9609 38.9746C25.9609 38.7525 25.9631 38.3627 25.9659 37.8397C25.9674 37.5728 25.969 37.2712 25.9707 36.9396C25.9756 35.9596 25.9805 34.7205 25.9805 33.3477C25.9805 31.8782 25.6217 30.7316 25.0976 29.9296C27.0746 29.6203 29.0917 29.0054 30.6857 27.6371C32.5491 26.0375 33.7539 23.4806 33.7539 19.4372C33.7539 17.1863 33.0174 15.3152 31.7729 13.8252C32.0546 12.964 32.4781 10.9319 31.4675 8.32318L31.382 8.10224L31.1568 8.02857L31.0013 8.50379C31.1568 8.02857 31.1563 8.02841 31.1558 8.02825L31.1547 8.02791L31.1525 8.02721L31.1477 8.02569L31.136 8.0222C31.1274 8.0197 31.1171 8.01685 31.1051 8.01379C31.081 8.00766 31.0502 8.00065 31.0124 7.9937C30.9368 7.9798 30.8339 7.96619 30.703 7.9602C30.4408 7.9482 30.0689 7.96688 29.581 8.07273C28.6388 8.27717 27.2679 8.80578 25.4157 10.0624C23.8391 9.6372 22.163 9.4254 20.502 9.41886L20.498 9.41887C18.837 9.4254 17.1609 9.6372 15.5843 10.0624C13.7319 8.80569 12.3594 8.2771 11.4156 8.07269C10.9269 7.96686 10.5543 7.94821 10.2916 7.9602C10.1604 7.96618 10.0573 7.97977 9.98164 7.99365C9.94383 8.00058 9.91294 8.00757 9.88889 8.01368C9.87687 8.01674 9.86656 8.01957 9.85796 8.02206L9.84634 8.02553L9.84149 8.02704L9.8393 8.02774L9.83827 8.02807C9.83777 8.02824 9.83728 8.0284 9.99219 8.50379L9.83728 8.0284L9.61108 8.10211L9.52559 8.32412C8.51975 10.9362 8.952 12.9689 9.22864 13.8243C7.98961 15.3127 7.23958 17.1835 7.23958 19.4372C7.23958 23.4708 8.44279 26.0302 10.3018 27.6353C11.8949 29.0108 13.9112 29.6329 15.8866 29.9438C15.5457 30.4703 15.2734 31.1434 15.1272 31.9628C14.5804 32.1833 13.786 32.4088 12.9554 32.3325C12.0289 32.2473 11.005 31.784 10.1944 30.3606L10.1922 30.3566L10.1799 30.3346C10.1695 30.3164 10.1548 30.2913 10.136 30.2602C10.0982 30.1981 10.0434 30.1118 9.97149 30.0089C9.8282 29.8039 9.6147 29.5296 9.33151 29.2493C8.76907 28.6928 7.89859 28.0816 6.73444 27.9964L6.71961 27.9953L6.70475 27.9951L6.69792 28.495C6.70475 27.9951 6.70459 27.9951 6.70442 27.9951L6.70404 27.9951L6.70314 27.9951L6.7008 27.995L6.69399 27.995L6.67231 27.9951C6.65447 27.9952 6.62988 27.9956 6.60003 27.9967C6.54079 27.9988 6.45848 28.0034 6.36552 28.0138C6.19962 28.0324 5.92323 28.0765 5.69712 28.208C5.57812 28.2771 5.42932 28.3957 5.34633 28.5902C5.25738 28.7987 5.27803 29.0134 5.35385 29.1977C5.486 29.519 5.81559 29.8258 6.27496 30.1465L6.30748 30.1692L6.33958 30.1848C6.33998 30.185 6.34048 30.1853 6.34108 30.1856C6.34336 30.1868 6.34708 30.1888 6.35217 30.1917C6.3562 30.1939 6.36108 30.1967 6.36679 30.2001C6.39265 30.2152 6.43543 30.2416 6.49192 30.2814C6.60482 30.361 6.77289 30.4942 6.97053 30.698C7.36284 31.1024 7.87838 31.7916 8.30881 32.9048C8.31021 32.9092 8.31181 32.9141 8.31361 32.9196C8.31628 32.9277 8.31941 32.937 8.32299 32.9474C8.33555 32.9839 8.35383 33.0342 8.37868 33.0959C8.42833 33.2192 8.50455 33.389 8.61426 33.5864C8.83323 33.9806 9.18912 34.491 9.73885 34.9591Z" fill="#5EF4D6" stroke="#5EF4D6"/>
</svg>
