<svg width="31" height="30" viewBox="0 0 31 30" fill="none" xmlns="http://www.w3.org/2000/svg">
<path d="M16.8393 13.2015H17.1342L17.2769 12.9434C18.0667 11.5148 19.7207 10.0455 22.6931 10.0455C25.8801 10.0455 27.6464 11.0206 28.6535 12.5302C29.6923 14.0875 30 16.318 30 18.9977V29.5H24.4905V20.2495C24.4905 19.1102 24.4853 17.679 24.0107 16.5351C23.767 15.9478 23.3922 15.4146 22.818 15.0323C22.2444 14.6505 21.5132 14.4467 20.6032 14.4467C19.6959 14.4467 18.958 14.6158 18.3685 14.9458C17.7736 15.2789 17.3644 15.7567 17.0883 16.3136C16.5532 17.3923 16.5095 18.7948 16.5095 20.0843V29.5H11V10.4689H16.2472V12.7015V13.2015H16.7472H16.8393ZM1 3.60085C1 1.90958 2.4443 0.5 4.27511 0.5C6.1053 0.5 7.54743 1.91036 7.54743 3.60085C7.54743 5.29855 6.095 6.73899 4.27232 6.73899C2.45013 6.73899 1 5.29903 1 3.60085ZM7.03404 29.5H1.51897V10.4689H7.03404V29.5Z" fill="#5EF4D6" stroke="#5EF4D6"/>
</svg>
