<svg width="41" height="40" viewBox="0 0 41 40" fill="none" xmlns="http://www.w3.org/2000/svg">
<path d="M22.5385 3.15505V2.69844L22.0837 2.6571C21.567 2.61013 21.0402 2.57692 20.5 2.57692C10.8931 2.57692 3.07692 10.3931 3.07692 20C3.07692 29.6069 10.8931 37.4231 20.5 37.4231C30.1069 37.4231 37.9231 29.6069 37.9231 20C37.9231 18.9128 37.8096 17.8575 37.6203 16.8323L37.5447 16.4231H37.1286H34.3462H33.8462V16.9231V18.123L30.5585 19.4381L28.4697 18.0455L28.1286 17.8181L27.8388 18.108L26.3003 19.6464L26.0455 19.9013L26.2066 20.2236L27.7451 23.3005L27.8833 23.5769H28.1923H29.2308V24.4974L27.7451 27.4687L27.6923 27.5743V27.6923V29.0641L23.3269 34.8846H22.377L21 31.4422V27.6923V27.1923H20.5H16.0917L13.3077 24.4083V20.25L19.0711 15.9274L24.9941 17.4081L25.2688 17.4768L25.4689 17.2766L27.0074 15.7382L27.1538 15.5917V15.3846V13.8462V13.3462H26.6538H25.3225L23.9305 11.9541L23.784 11.8077H23.5769H16.3846V11.2692H17.4231H17.7835L17.8974 10.9273L19.3219 6.65385H22.0385H22.5385V6.15385V3.15505ZM1 20C1 9.24845 9.74845 0.5 20.5 0.5C31.2516 0.5 40 9.24845 40 20C40 30.7516 31.2516 39.5 20.5 39.5C9.74845 39.5 1 30.7516 1 20Z" fill="#5EF4D6" stroke="#5EF4D6"/>
</svg>
