<svg width="174" height="46" viewBox="0 0 174 46" fill="none" xmlns="http://www.w3.org/2000/svg">
<path fill-rule="evenodd" clip-rule="evenodd" d="M12.8194 45.7213C12.2812 45.2021 11.9582 44.4848 11.9923 43.5C12.1646 38.8438 14.4449 28.8158 15.4352 24.3368C16.7269 18.5048 19.3087 12.2559 22.7515 4.75839C23.392 3.36205 24.2998 0.789923 27.0538 1.00875C27.339 1.03133 27.6261 1.06259 27.9275 1.09906C35.7085 4.12274 40.2996 13.0826 38.6741 24.3368C36.514 39.2971 25.0067 45.928 16.2964 45.9992C15.0351 46.0096 13.8815 45.9159 12.8194 45.7213ZM7.64164 43.4966C4.59168 41.1728 2.59843 37.2547 0.804338 31.836C-2.88433 20.707 6.60107 1.8806 19.3087 0.175114C20.4784 0.0188066 21.6194 -0.0315592 22.7174 0.0188065C22.9704 1.20501 21.3001 3.51835 20.1698 5.5903C18.0994 9.38335 14.0807 18.3068 12.4229 26.004C10.758 33.743 9.89682 38.7413 8.98004 42.2496C8.71272 43.276 8.28752 43.6008 7.64164 43.4966Z" fill="url(#paint0_linear)"/>
<path d="M46.64 30C46.48 30 46.344 29.952 46.232 29.856C46.136 29.744 46.088 29.608 46.088 29.448V13.752C46.088 13.592 46.136 13.464 46.232 13.368C46.344 13.256 46.48 13.2 46.64 13.2H47.912C48.072 13.2 48.2 13.256 48.296 13.368C48.408 13.464 48.464 13.592 48.464 13.752V27.912H56.432C56.608 27.912 56.744 27.968 56.84 28.08C56.952 28.176 57.008 28.312 57.008 28.488V29.448C57.008 29.608 56.952 29.744 56.84 29.856C56.728 29.952 56.592 30 56.432 30H46.64ZM64.0336 30.24C62.3856 30.24 61.0656 29.736 60.0736 28.728C59.0976 27.704 58.5616 26.312 58.4656 24.552L58.4416 23.736L58.4656 22.944C58.5776 21.216 59.1216 19.84 60.0976 18.816C61.0896 17.792 62.3936 17.28 64.0096 17.28C65.7856 17.28 67.1616 17.848 68.1376 18.984C69.1136 20.104 69.6016 21.624 69.6016 23.544V23.952C69.6016 24.112 69.5456 24.248 69.4336 24.36C69.3376 24.456 69.2096 24.504 69.0496 24.504H60.7456V24.72C60.7936 25.76 61.1056 26.648 61.6816 27.384C62.2736 28.104 63.0496 28.464 64.0096 28.464C64.7456 28.464 65.3456 28.32 65.8096 28.032C66.2896 27.728 66.6416 27.416 66.8656 27.096C67.0096 26.904 67.1136 26.792 67.1776 26.76C67.2576 26.712 67.3936 26.688 67.5856 26.688H68.7616C68.9056 26.688 69.0256 26.728 69.1216 26.808C69.2176 26.888 69.2656 27 69.2656 27.144C69.2656 27.496 69.0416 27.92 68.5936 28.416C68.1616 28.912 67.5456 29.344 66.7456 29.712C65.9616 30.064 65.0576 30.24 64.0336 30.24ZM67.3216 22.848V22.776C67.3216 21.672 67.0176 20.776 66.4096 20.088C65.8176 19.384 65.0176 19.032 64.0096 19.032C63.0016 19.032 62.2016 19.384 61.6096 20.088C61.0336 20.776 60.7456 21.672 60.7456 22.776V22.848H67.3216ZM75.9513 30.24C75.1673 30.24 74.4393 30.08 73.7673 29.76C73.0953 29.44 72.5593 29.008 72.1593 28.464C71.7753 27.904 71.5833 27.288 71.5833 26.616C71.5833 25.56 72.0153 24.696 72.8793 24.024C73.7593 23.336 74.9433 22.888 76.4313 22.68L80.0073 22.176V21.48C80.0073 19.848 79.0713 19.032 77.1993 19.032C76.4953 19.032 75.9193 19.184 75.4713 19.488C75.0233 19.776 74.6873 20.12 74.4633 20.52C74.4153 20.664 74.3513 20.768 74.2713 20.832C74.2073 20.896 74.1113 20.928 73.9833 20.928H72.9513C72.8073 20.928 72.6793 20.88 72.5673 20.784C72.4713 20.672 72.4233 20.544 72.4233 20.4C72.4393 20.016 72.6153 19.584 72.9513 19.104C73.3033 18.608 73.8393 18.184 74.5593 17.832C75.2793 17.464 76.1673 17.28 77.2233 17.28C79.0153 17.28 80.3033 17.704 81.0873 18.552C81.8713 19.384 82.2633 20.424 82.2633 21.672V29.448C82.2633 29.608 82.2073 29.744 82.0953 29.856C81.9993 29.952 81.8713 30 81.7113 30H80.6073C80.4473 30 80.3113 29.952 80.1993 29.856C80.1033 29.744 80.0553 29.608 80.0553 29.448V28.416C79.7033 28.928 79.1913 29.36 78.5193 29.712C77.8473 30.064 76.9913 30.24 75.9513 30.24ZM76.4553 28.44C77.4953 28.44 78.3433 28.104 78.9993 27.432C79.6713 26.744 80.0073 25.76 80.0073 24.48V23.808L77.2233 24.216C76.0873 24.376 75.2313 24.648 74.6553 25.032C74.0793 25.4 73.7913 25.872 73.7913 26.448C73.7913 27.088 74.0553 27.584 74.5833 27.936C75.1113 28.272 75.7353 28.44 76.4553 28.44ZM86.2655 30C86.1055 30 85.9695 29.952 85.8575 29.856C85.7615 29.744 85.7135 29.608 85.7135 29.448V18.096C85.7135 17.936 85.7615 17.8 85.8575 17.688C85.9695 17.576 86.1055 17.52 86.2655 17.52H87.3695C87.5295 17.52 87.6655 17.576 87.7775 17.688C87.8895 17.8 87.9455 17.936 87.9455 18.096V19.152C88.6015 18.064 89.7215 17.52 91.3055 17.52H92.2415C92.4015 17.52 92.5295 17.576 92.6255 17.688C92.7375 17.784 92.7935 17.912 92.7935 18.072V19.056C92.7935 19.216 92.7375 19.344 92.6255 19.44C92.5295 19.536 92.4015 19.584 92.2415 19.584H90.8015C89.9375 19.584 89.2575 19.84 88.7615 20.352C88.2655 20.848 88.0175 21.528 88.0175 22.392V29.448C88.0175 29.608 87.9615 29.744 87.8495 29.856C87.7375 29.952 87.6015 30 87.4415 30H86.2655ZM95.3827 30C95.2227 30 95.0867 29.952 94.9747 29.856C94.8787 29.744 94.8307 29.608 94.8307 29.448V18.072C94.8307 17.912 94.8787 17.784 94.9747 17.688C95.0867 17.576 95.2227 17.52 95.3827 17.52H96.5107C96.6707 17.52 96.7987 17.576 96.8947 17.688C97.0067 17.784 97.0627 17.912 97.0627 18.072V19.128C97.5267 18.536 98.0707 18.08 98.6947 17.76C99.3347 17.44 100.127 17.28 101.071 17.28C102.607 17.28 103.799 17.776 104.647 18.768C105.511 19.744 105.943 21.048 105.943 22.68V29.448C105.943 29.608 105.887 29.744 105.775 29.856C105.679 29.952 105.551 30 105.391 30H104.191C104.031 30 103.895 29.952 103.783 29.856C103.687 29.744 103.639 29.608 103.639 29.448V22.8C103.639 21.664 103.359 20.784 102.799 20.16C102.255 19.536 101.463 19.224 100.423 19.224C99.4147 19.224 98.6147 19.544 98.0227 20.184C97.4307 20.808 97.1347 21.68 97.1347 22.8V29.448C97.1347 29.608 97.0787 29.744 96.9667 29.856C96.8707 29.952 96.7427 30 96.5827 30H95.3827ZM109.817 23.808C109.657 23.808 109.521 23.76 109.409 23.664C109.313 23.552 109.265 23.416 109.265 23.256V22.344C109.265 22.184 109.313 22.056 109.409 21.96C109.521 21.848 109.657 21.792 109.817 21.792H117.017C117.177 21.792 117.305 21.848 117.401 21.96C117.513 22.056 117.569 22.184 117.569 22.344V23.256C117.569 23.416 117.513 23.552 117.401 23.664C117.305 23.76 117.177 23.808 117.017 23.808H109.817ZM124.233 30.24C123.449 30.24 122.721 30.08 122.049 29.76C121.377 29.44 120.841 29.008 120.441 28.464C120.057 27.904 119.865 27.288 119.865 26.616C119.865 25.56 120.297 24.696 121.161 24.024C122.041 23.336 123.225 22.888 124.713 22.68L128.289 22.176V21.48C128.289 19.848 127.353 19.032 125.481 19.032C124.777 19.032 124.201 19.184 123.753 19.488C123.305 19.776 122.969 20.12 122.745 20.52C122.697 20.664 122.633 20.768 122.553 20.832C122.489 20.896 122.393 20.928 122.265 20.928H121.233C121.089 20.928 120.961 20.88 120.849 20.784C120.753 20.672 120.705 20.544 120.705 20.4C120.721 20.016 120.897 19.584 121.233 19.104C121.585 18.608 122.121 18.184 122.841 17.832C123.561 17.464 124.449 17.28 125.505 17.28C127.297 17.28 128.585 17.704 129.369 18.552C130.153 19.384 130.545 20.424 130.545 21.672V29.448C130.545 29.608 130.489 29.744 130.377 29.856C130.281 29.952 130.153 30 129.993 30H128.889C128.729 30 128.593 29.952 128.481 29.856C128.385 29.744 128.337 29.608 128.337 29.448V28.416C127.985 28.928 127.473 29.36 126.801 29.712C126.129 30.064 125.273 30.24 124.233 30.24ZM124.737 28.44C125.777 28.44 126.625 28.104 127.281 27.432C127.953 26.744 128.289 25.76 128.289 24.48V23.808L125.505 24.216C124.369 24.376 123.513 24.648 122.937 25.032C122.361 25.4 122.073 25.872 122.073 26.448C122.073 27.088 122.337 27.584 122.865 27.936C123.393 28.272 124.017 28.44 124.737 28.44ZM134.427 23.808C134.267 23.808 134.131 23.76 134.019 23.664C133.923 23.552 133.875 23.416 133.875 23.256V22.344C133.875 22.184 133.923 22.056 134.019 21.96C134.131 21.848 134.267 21.792 134.427 21.792H141.627C141.787 21.792 141.915 21.848 142.011 21.96C142.123 22.056 142.179 22.184 142.179 22.344V23.256C142.179 23.416 142.123 23.552 142.011 23.664C141.915 23.76 141.787 23.808 141.627 23.808H134.427ZM151.788 30.24C150.06 30.24 148.748 29.64 147.852 28.44V29.448C147.852 29.608 147.796 29.744 147.684 29.856C147.588 29.952 147.46 30 147.3 30H146.196C146.036 30 145.9 29.952 145.788 29.856C145.692 29.744 145.644 29.608 145.644 29.448V13.512C145.644 13.352 145.692 13.224 145.788 13.128C145.9 13.016 146.036 12.96 146.196 12.96H147.372C147.532 12.96 147.66 13.016 147.756 13.128C147.852 13.224 147.9 13.352 147.9 13.512V19.032C148.844 17.864 150.14 17.28 151.788 17.28C153.452 17.28 154.708 17.832 155.556 18.936C156.404 20.024 156.86 21.392 156.924 23.04C156.94 23.216 156.948 23.456 156.948 23.76C156.948 24.064 156.94 24.304 156.924 24.48C156.86 26.144 156.404 27.52 155.556 28.608C154.708 29.696 153.452 30.24 151.788 30.24ZM151.284 28.296C152.42 28.296 153.244 27.944 153.756 27.24C154.284 26.536 154.572 25.608 154.62 24.456C154.636 24.296 154.644 24.064 154.644 23.76C154.644 20.736 153.524 19.224 151.284 19.224C150.212 19.224 149.388 19.576 148.812 20.28C148.236 20.984 147.932 21.808 147.9 22.752L147.876 23.688L147.9 24.6C147.948 25.608 148.244 26.48 148.788 27.216C149.348 27.936 150.18 28.296 151.284 28.296ZM160.253 15.192C160.093 15.192 159.957 15.144 159.845 15.048C159.749 14.936 159.701 14.8 159.701 14.64V13.344C159.701 13.184 159.749 13.048 159.845 12.936C159.957 12.824 160.093 12.768 160.253 12.768H161.765C161.925 12.768 162.061 12.824 162.173 12.936C162.285 13.048 162.341 13.184 162.341 13.344V14.64C162.341 14.8 162.285 14.936 162.173 15.048C162.061 15.144 161.925 15.192 161.765 15.192H160.253ZM160.445 30C160.285 30 160.149 29.952 160.037 29.856C159.941 29.744 159.893 29.608 159.893 29.448V18.072C159.893 17.912 159.941 17.784 160.037 17.688C160.149 17.576 160.285 17.52 160.445 17.52H161.597C161.757 17.52 161.885 17.576 161.981 17.688C162.093 17.784 162.149 17.912 162.149 18.072V29.448C162.149 29.608 162.093 29.744 161.981 29.856C161.885 29.952 161.757 30 161.597 30H160.445ZM170.578 30C168.05 30 166.786 28.592 166.786 25.776V19.44H164.914C164.754 19.44 164.618 19.392 164.506 19.296C164.41 19.184 164.362 19.048 164.362 18.888V18.072C164.362 17.912 164.41 17.784 164.506 17.688C164.618 17.576 164.754 17.52 164.914 17.52H166.786V13.512C166.786 13.352 166.834 13.224 166.93 13.128C167.042 13.016 167.178 12.96 167.338 12.96H168.466C168.626 12.96 168.754 13.016 168.85 13.128C168.962 13.224 169.018 13.352 169.018 13.512V17.52H171.994C172.154 17.52 172.282 17.576 172.378 17.688C172.49 17.784 172.546 17.912 172.546 18.072V18.888C172.546 19.048 172.49 19.184 172.378 19.296C172.282 19.392 172.154 19.44 171.994 19.44H169.018V25.608C169.018 26.408 169.154 27.016 169.426 27.432C169.698 27.832 170.146 28.032 170.77 28.032H172.234C172.394 28.032 172.522 28.088 172.618 28.2C172.73 28.296 172.786 28.424 172.786 28.584V29.448C172.786 29.608 172.73 29.744 172.618 29.856C172.522 29.952 172.394 30 172.234 30H170.578Z" fill="url(#paint1_linear)"/>
<path d="M68.0847 37.58C68.0381 37.58 68.0014 37.5633 67.9747 37.53C67.9481 37.4967 67.9347 37.46 67.9347 37.42C67.9347 37.36 67.9481 37.3 67.9747 37.24L68.4047 36.11C68.4381 36.0367 68.4714 35.9833 68.5047 35.95C68.5447 35.9167 68.5981 35.9 68.6647 35.9H68.8347C68.8881 35.9 68.9281 35.92 68.9547 35.96C68.9747 35.9867 68.9847 36.0167 68.9847 36.05C68.9847 36.07 68.9814 36.09 68.9747 36.11L68.7847 37.31C68.7647 37.49 68.6814 37.58 68.5347 37.58H68.0847ZM69.4247 37.58C69.3781 37.58 69.3414 37.5633 69.3147 37.53C69.2881 37.4967 69.2747 37.46 69.2747 37.42C69.2747 37.36 69.2881 37.3 69.3147 37.24L69.7447 36.11C69.7781 36.0367 69.8114 35.9833 69.8447 35.95C69.8847 35.9167 69.9381 35.9 70.0047 35.9H70.1747C70.2281 35.9 70.2681 35.92 70.2947 35.96C70.3147 35.9867 70.3247 36.0167 70.3247 36.05C70.3247 36.07 70.3214 36.09 70.3147 36.11L70.1247 37.31C70.1047 37.49 70.0214 37.58 69.8747 37.58H69.4247ZM71.9199 43C71.8532 43 71.7999 42.98 71.7599 42.94C71.7199 42.9 71.6999 42.8467 71.6999 42.78V36.12C71.6999 36.0533 71.7199 36 71.7599 35.96C71.7999 35.92 71.8532 35.9 71.9199 35.9H72.0899C72.1565 35.9 72.2099 35.92 72.2499 35.96C72.2899 36 72.3099 36.0533 72.3099 36.12V42.78C72.3099 42.8467 72.2899 42.9 72.2499 42.94C72.2099 42.98 72.1565 43 72.0899 43H71.9199ZM75.866 43.1C75.2326 43.1 74.7226 42.8933 74.336 42.48C73.9493 42.06 73.7293 41.5 73.676 40.8L73.666 40.4L73.676 40C73.7293 39.3067 73.946 38.75 74.326 38.33C74.7126 37.91 75.226 37.7 75.866 37.7C76.5593 37.7 77.0993 37.93 77.486 38.39C77.8793 38.85 78.076 39.48 78.076 40.28V40.43C78.076 40.4967 78.0526 40.55 78.006 40.59C77.966 40.63 77.9126 40.65 77.846 40.65H74.286V40.75C74.2993 41.0633 74.3693 41.3567 74.496 41.63C74.6293 41.8967 74.8126 42.1133 75.046 42.28C75.2793 42.44 75.5526 42.52 75.866 42.52C76.2326 42.52 76.5293 42.45 76.756 42.31C76.9893 42.1633 77.156 42.0167 77.256 41.87C77.316 41.79 77.3593 41.74 77.386 41.72C77.4193 41.7 77.476 41.69 77.556 41.69H77.716C77.776 41.69 77.826 41.7067 77.866 41.74C77.906 41.7733 77.926 41.8167 77.926 41.87C77.926 42.01 77.836 42.18 77.656 42.38C77.4826 42.5733 77.2393 42.7433 76.926 42.89C76.6126 43.03 76.2593 43.1 75.866 43.1ZM77.466 40.09V40.05C77.466 39.5367 77.3193 39.1133 77.026 38.78C76.7393 38.4467 76.3526 38.28 75.866 38.28C75.3793 38.28 74.9926 38.4467 74.706 38.78C74.426 39.1133 74.286 39.5367 74.286 40.05V40.09H77.466ZM81.0189 43C80.8323 43 80.7056 42.9167 80.6389 42.75L78.7989 38.11L78.7789 38C78.7789 37.9467 78.7989 37.9 78.8389 37.86C78.8789 37.82 78.9256 37.8 78.9789 37.8H79.1889C79.2489 37.8 79.2956 37.8167 79.3289 37.85C79.3689 37.8833 79.3956 37.9167 79.4089 37.95L81.0989 42.27L82.7889 37.95C82.8023 37.9167 82.8256 37.8833 82.8589 37.85C82.8989 37.8167 82.9489 37.8 83.0089 37.8H83.2189C83.2723 37.8 83.3189 37.82 83.3589 37.86C83.3989 37.9 83.4189 37.9467 83.4189 38L83.3989 38.11L81.5589 42.75C81.4923 42.9167 81.3656 43 81.1789 43H81.0189ZM86.3445 43.1C85.7112 43.1 85.2012 42.8933 84.8145 42.48C84.4278 42.06 84.2078 41.5 84.1545 40.8L84.1445 40.4L84.1545 40C84.2078 39.3067 84.4245 38.75 84.8045 38.33C85.1912 37.91 85.7045 37.7 86.3445 37.7C87.0378 37.7 87.5778 37.93 87.9645 38.39C88.3578 38.85 88.5545 39.48 88.5545 40.28V40.43C88.5545 40.4967 88.5312 40.55 88.4845 40.59C88.4445 40.63 88.3912 40.65 88.3245 40.65H84.7645V40.75C84.7778 41.0633 84.8478 41.3567 84.9745 41.63C85.1078 41.8967 85.2912 42.1133 85.5245 42.28C85.7578 42.44 86.0312 42.52 86.3445 42.52C86.7112 42.52 87.0078 42.45 87.2345 42.31C87.4678 42.1633 87.6345 42.0167 87.7345 41.87C87.7945 41.79 87.8378 41.74 87.8645 41.72C87.8978 41.7 87.9545 41.69 88.0345 41.69H88.1945C88.2545 41.69 88.3045 41.7067 88.3445 41.74C88.3845 41.7733 88.4045 41.8167 88.4045 41.87C88.4045 42.01 88.3145 42.18 88.1345 42.38C87.9612 42.5733 87.7178 42.7433 87.4045 42.89C87.0912 43.03 86.7378 43.1 86.3445 43.1ZM87.9445 40.09V40.05C87.9445 39.5367 87.7978 39.1133 87.5045 38.78C87.2178 38.4467 86.8312 38.28 86.3445 38.28C85.8578 38.28 85.4712 38.4467 85.1845 38.78C84.9045 39.1133 84.7645 39.5367 84.7645 40.05V40.09H87.9445ZM90.1035 43C90.0368 43 89.9835 42.98 89.9435 42.94C89.9035 42.9 89.8835 42.8467 89.8835 42.78V36.12C89.8835 36.0533 89.9035 36 89.9435 35.96C89.9835 35.92 90.0368 35.9 90.1035 35.9H90.2735C90.3401 35.9 90.3935 35.92 90.4335 35.96C90.4735 36 90.4935 36.0533 90.4935 36.12V42.78C90.4935 42.8467 90.4735 42.9 90.4335 42.94C90.3935 42.98 90.3401 43 90.2735 43H90.1035ZM96.6477 43.1C95.9944 43.1 95.4977 42.8933 95.1577 42.48C94.8177 42.0667 94.6477 41.5267 94.6477 40.86V38.02C94.6477 37.9533 94.6677 37.9 94.7077 37.86C94.7477 37.82 94.801 37.8 94.8677 37.8H95.0377C95.1044 37.8 95.1577 37.82 95.1977 37.86C95.2377 37.9 95.2577 37.9533 95.2577 38.02V40.81C95.2577 41.95 95.7544 42.52 96.7477 42.52C97.2277 42.52 97.6077 42.37 97.8877 42.07C98.1744 41.7633 98.3177 41.3433 98.3177 40.81V38.02C98.3177 37.9533 98.3377 37.9 98.3777 37.86C98.4177 37.82 98.471 37.8 98.5377 37.8H98.7077C98.7744 37.8 98.8277 37.82 98.8677 37.86C98.9077 37.9 98.9277 37.9533 98.9277 38.02V42.78C98.9277 42.8467 98.9077 42.9 98.8677 42.94C98.8277 42.98 98.7744 43 98.7077 43H98.5377C98.471 43 98.4177 42.98 98.3777 42.94C98.3377 42.9 98.3177 42.8467 98.3177 42.78V42.31C98.1177 42.57 97.8877 42.7667 97.6277 42.9C97.3744 43.0333 97.0477 43.1 96.6477 43.1ZM100.777 44.9C100.711 44.9 100.657 44.88 100.617 44.84C100.577 44.8 100.557 44.7467 100.557 44.68V38.02C100.557 37.9533 100.577 37.9 100.617 37.86C100.657 37.82 100.711 37.8 100.777 37.8H100.947C101.014 37.8 101.067 37.82 101.107 37.86C101.147 37.9 101.167 37.9533 101.167 38.02V38.49C101.554 37.9633 102.114 37.7 102.847 37.7C103.567 37.7 104.097 37.93 104.437 38.39C104.784 38.8433 104.967 39.4033 104.987 40.07C104.994 40.1367 104.997 40.2467 104.997 40.4C104.997 40.5533 104.994 40.6633 104.987 40.73C104.967 41.3967 104.784 41.96 104.437 42.42C104.097 42.8733 103.567 43.1 102.847 43.1C102.121 43.1 101.561 42.8367 101.167 42.31V44.68C101.167 44.7467 101.147 44.8 101.107 44.84C101.067 44.88 101.014 44.9 100.947 44.9H100.777ZM102.787 42.52C103.327 42.52 103.721 42.35 103.967 42.01C104.221 41.6633 104.357 41.22 104.377 40.68C104.384 40.6133 104.387 40.52 104.387 40.4C104.387 39.78 104.267 39.2733 104.027 38.88C103.787 38.48 103.374 38.28 102.787 38.28C102.261 38.28 101.864 38.4567 101.597 38.81C101.331 39.1567 101.187 39.5667 101.167 40.04L101.157 40.43L101.167 40.82C101.174 41.1067 101.237 41.38 101.357 41.64C101.477 41.8933 101.657 42.1033 101.897 42.27C102.137 42.4367 102.434 42.52 102.787 42.52ZM111.236 43.1C110.503 43.1 109.943 42.8367 109.556 42.31V42.78C109.556 42.8467 109.536 42.9 109.496 42.94C109.456 42.98 109.403 43 109.336 43H109.166C109.099 43 109.046 42.98 109.006 42.94C108.966 42.9 108.946 42.8467 108.946 42.78V36.12C108.946 36.0533 108.966 36 109.006 35.96C109.046 35.92 109.099 35.9 109.166 35.9H109.336C109.403 35.9 109.456 35.92 109.496 35.96C109.536 36 109.556 36.0533 109.556 36.12V38.49C109.949 37.9633 110.509 37.7 111.236 37.7C111.956 37.7 112.486 37.9367 112.826 38.41C113.173 38.8767 113.356 39.4467 113.376 40.12C113.383 40.1867 113.386 40.28 113.386 40.4C113.386 40.52 113.383 40.6133 113.376 40.68C113.356 41.3533 113.173 41.9267 112.826 42.4C112.486 42.8667 111.956 43.1 111.236 43.1ZM111.176 42.52C111.716 42.52 112.109 42.35 112.356 42.01C112.609 41.6633 112.746 41.22 112.766 40.68C112.773 40.6133 112.776 40.52 112.776 40.4C112.776 39.78 112.656 39.2733 112.416 38.88C112.176 38.48 111.763 38.28 111.176 38.28C110.823 38.28 110.526 38.3633 110.286 38.53C110.046 38.6967 109.866 38.91 109.746 39.17C109.626 39.4233 109.563 39.6933 109.556 39.98L109.546 40.37L109.556 40.76C109.576 41.2333 109.719 41.6467 109.986 42C110.253 42.3467 110.649 42.52 111.176 42.52ZM114.847 36.73C114.78 36.73 114.727 36.71 114.687 36.67C114.647 36.63 114.627 36.5767 114.627 36.51V36.13C114.627 36.0633 114.647 36.01 114.687 35.97C114.727 35.9233 114.78 35.9 114.847 35.9H115.227C115.293 35.9 115.347 35.9233 115.387 35.97C115.433 36.01 115.457 36.0633 115.457 36.13V36.51C115.457 36.5767 115.433 36.63 115.387 36.67C115.347 36.71 115.293 36.73 115.227 36.73H114.847ZM114.957 43C114.89 43 114.837 42.98 114.797 42.94C114.757 42.9 114.737 42.8467 114.737 42.78V38.02C114.737 37.9533 114.757 37.9 114.797 37.86C114.837 37.82 114.89 37.8 114.957 37.8H115.127C115.193 37.8 115.247 37.82 115.287 37.86C115.327 37.9 115.347 37.9533 115.347 38.02V42.78C115.347 42.8467 115.327 42.9 115.287 42.94C115.247 42.98 115.193 43 115.127 43H114.957ZM118.713 43C118.22 43 117.87 42.8533 117.663 42.56C117.457 42.26 117.353 41.85 117.353 41.33V38.38H116.573C116.507 38.38 116.453 38.36 116.413 38.32C116.373 38.28 116.353 38.2267 116.353 38.16V38.02C116.353 37.9533 116.373 37.9 116.413 37.86C116.453 37.82 116.507 37.8 116.573 37.8H117.353V36.12C117.353 36.0533 117.373 36 117.413 35.96C117.453 35.92 117.507 35.9 117.573 35.9H117.743C117.81 35.9 117.863 35.92 117.903 35.96C117.943 36 117.963 36.0533 117.963 36.12V37.8H119.203C119.27 37.8 119.323 37.82 119.363 37.86C119.403 37.9 119.423 37.9533 119.423 38.02V38.16C119.423 38.2267 119.403 38.28 119.363 38.32C119.323 38.36 119.27 38.38 119.203 38.38H117.963V41.29C117.963 41.6633 118.023 41.9467 118.143 42.14C118.27 42.3267 118.477 42.42 118.763 42.42H119.303C119.37 42.42 119.423 42.44 119.463 42.48C119.503 42.52 119.523 42.5733 119.523 42.64V42.78C119.523 42.8467 119.503 42.9 119.463 42.94C119.423 42.98 119.37 43 119.303 43H118.713ZM125.435 43.1C124.702 43.1 124.142 42.8367 123.755 42.31V42.78C123.755 42.8467 123.735 42.9 123.695 42.94C123.655 42.98 123.602 43 123.535 43H123.365C123.299 43 123.245 42.98 123.205 42.94C123.165 42.9 123.145 42.8467 123.145 42.78V36.12C123.145 36.0533 123.165 36 123.205 35.96C123.245 35.92 123.299 35.9 123.365 35.9H123.535C123.602 35.9 123.655 35.92 123.695 35.96C123.735 36 123.755 36.0533 123.755 36.12V38.49C124.149 37.9633 124.709 37.7 125.435 37.7C126.155 37.7 126.685 37.9367 127.025 38.41C127.372 38.8767 127.555 39.4467 127.575 40.12C127.582 40.1867 127.585 40.28 127.585 40.4C127.585 40.52 127.582 40.6133 127.575 40.68C127.555 41.3533 127.372 41.9267 127.025 42.4C126.685 42.8667 126.155 43.1 125.435 43.1ZM125.375 42.52C125.915 42.52 126.309 42.35 126.555 42.01C126.809 41.6633 126.945 41.22 126.965 40.68C126.972 40.6133 126.975 40.52 126.975 40.4C126.975 39.78 126.855 39.2733 126.615 38.88C126.375 38.48 125.962 38.28 125.375 38.28C125.022 38.28 124.725 38.3633 124.485 38.53C124.245 38.6967 124.065 38.91 123.945 39.17C123.825 39.4233 123.762 39.6933 123.755 39.98L123.745 40.37L123.755 40.76C123.775 41.2333 123.919 41.6467 124.185 42C124.452 42.3467 124.849 42.52 125.375 42.52ZM129.63 44.9C129.577 44.9 129.53 44.88 129.49 44.84C129.45 44.8 129.43 44.7533 129.43 44.7C129.43 44.6667 129.45 44.6 129.49 44.5L130.26 42.7L128.35 38.2C128.31 38.1 128.29 38.0333 128.29 38C128.29 37.9467 128.31 37.9 128.35 37.86C128.39 37.82 128.437 37.8 128.49 37.8H128.7C128.807 37.8 128.884 37.85 128.93 37.95L130.61 41.91L132.33 37.95C132.384 37.85 132.46 37.8 132.56 37.8H132.76C132.814 37.8 132.86 37.82 132.9 37.86C132.94 37.9 132.96 37.9467 132.96 38C132.96 38.0333 132.94 38.1 132.9 38.2L130.06 44.75C130.014 44.85 129.937 44.9 129.83 44.9H129.63ZM138.677 43.1C137.944 43.1 137.384 42.8367 136.997 42.31V42.78C136.997 42.8467 136.977 42.9 136.937 42.94C136.897 42.98 136.844 43 136.777 43H136.607C136.541 43 136.487 42.98 136.447 42.94C136.407 42.9 136.387 42.8467 136.387 42.78V36.12C136.387 36.0533 136.407 36 136.447 35.96C136.487 35.92 136.541 35.9 136.607 35.9H136.777C136.844 35.9 136.897 35.92 136.937 35.96C136.977 36 136.997 36.0533 136.997 36.12V38.49C137.391 37.9633 137.951 37.7 138.677 37.7C139.397 37.7 139.927 37.9367 140.267 38.41C140.614 38.8767 140.797 39.4467 140.817 40.12C140.824 40.1867 140.827 40.28 140.827 40.4C140.827 40.52 140.824 40.6133 140.817 40.68C140.797 41.3533 140.614 41.9267 140.267 42.4C139.927 42.8667 139.397 43.1 138.677 43.1ZM138.617 42.52C139.157 42.52 139.551 42.35 139.797 42.01C140.051 41.6633 140.187 41.22 140.207 40.68C140.214 40.6133 140.217 40.52 140.217 40.4C140.217 39.78 140.097 39.2733 139.857 38.88C139.617 38.48 139.204 38.28 138.617 38.28C138.264 38.28 137.967 38.3633 137.727 38.53C137.487 38.6967 137.307 38.91 137.187 39.17C137.067 39.4233 137.004 39.6933 136.997 39.98L136.987 40.37L136.997 40.76C137.017 41.2333 137.161 41.6467 137.427 42C137.694 42.3467 138.091 42.52 138.617 42.52ZM142.288 36.73C142.221 36.73 142.168 36.71 142.128 36.67C142.088 36.63 142.068 36.5767 142.068 36.51V36.13C142.068 36.0633 142.088 36.01 142.128 35.97C142.168 35.9233 142.221 35.9 142.288 35.9H142.668C142.735 35.9 142.788 35.9233 142.828 35.97C142.875 36.01 142.898 36.0633 142.898 36.13V36.51C142.898 36.5767 142.875 36.63 142.828 36.67C142.788 36.71 142.735 36.73 142.668 36.73H142.288ZM142.398 43C142.331 43 142.278 42.98 142.238 42.94C142.198 42.9 142.178 42.8467 142.178 42.78V38.02C142.178 37.9533 142.198 37.9 142.238 37.86C142.278 37.82 142.331 37.8 142.398 37.8H142.568C142.635 37.8 142.688 37.82 142.728 37.86C142.768 37.9 142.788 37.9533 142.788 38.02V42.78C142.788 42.8467 142.768 42.9 142.728 42.94C142.688 42.98 142.635 43 142.568 43H142.398ZM146.155 43C145.661 43 145.311 42.8533 145.105 42.56C144.898 42.26 144.795 41.85 144.795 41.33V38.38H144.015C143.948 38.38 143.895 38.36 143.855 38.32C143.815 38.28 143.795 38.2267 143.795 38.16V38.02C143.795 37.9533 143.815 37.9 143.855 37.86C143.895 37.82 143.948 37.8 144.015 37.8H144.795V36.12C144.795 36.0533 144.815 36 144.855 35.96C144.895 35.92 144.948 35.9 145.015 35.9H145.185C145.251 35.9 145.305 35.92 145.345 35.96C145.385 36 145.405 36.0533 145.405 36.12V37.8H146.645C146.711 37.8 146.765 37.82 146.805 37.86C146.845 37.9 146.865 37.9533 146.865 38.02V38.16C146.865 38.2267 146.845 38.28 146.805 38.32C146.765 38.36 146.711 38.38 146.645 38.38H145.405V41.29C145.405 41.6633 145.465 41.9467 145.585 42.14C145.711 42.3267 145.918 42.42 146.205 42.42H146.745C146.811 42.42 146.865 42.44 146.905 42.48C146.945 42.52 146.965 42.5733 146.965 42.64V42.78C146.965 42.8467 146.945 42.9 146.905 42.94C146.865 42.98 146.811 43 146.745 43H146.155ZM147.958 37.58C147.905 37.58 147.865 37.56 147.838 37.52C147.818 37.4933 147.808 37.4633 147.808 37.43C147.808 37.41 147.812 37.39 147.818 37.37L148.008 36.17C148.028 35.99 148.112 35.9 148.258 35.9H148.708C148.748 35.9 148.782 35.9167 148.808 35.95C148.842 35.9833 148.858 36.02 148.858 36.06C148.858 36.12 148.845 36.18 148.818 36.24L148.388 37.37C148.355 37.4433 148.318 37.4967 148.278 37.53C148.245 37.5633 148.195 37.58 148.128 37.58H147.958ZM149.298 37.58C149.245 37.58 149.205 37.56 149.178 37.52C149.158 37.4933 149.148 37.4633 149.148 37.43C149.148 37.41 149.152 37.39 149.158 37.37L149.348 36.17C149.368 35.99 149.452 35.9 149.598 35.9H150.048C150.088 35.9 150.122 35.9167 150.148 35.95C150.182 35.9833 150.198 36.02 150.198 36.06C150.198 36.12 150.185 36.18 150.158 36.24L149.728 37.37C149.695 37.4433 149.658 37.4967 149.618 37.53C149.585 37.5633 149.535 37.58 149.468 37.58H149.298Z" fill="#F1FFF6"/>
<defs>
<linearGradient id="paint0_linear" x1="6.32657" y1="46.0001" x2="30.2051" y2="0.495862" gradientUnits="userSpaceOnUse">
<stop stop-color="#16A4DA"/>
<stop offset="0.15" stop-color="#00ABD7"/>
<stop offset="0.34" stop-color="#00C6CD"/>
<stop offset="0.5" stop-color="#00DAC5"/>
<stop offset="0.8" stop-color="#00FFB7"/>
<stop offset="1" stop-color="#00FF9B"/>
</linearGradient>
<linearGradient id="paint1_linear" x1="97.983" y1="30" x2="97.983" y2="11.5" gradientUnits="userSpaceOnUse">
<stop stop-color="#2AB2B2"/>
<stop offset="0.331557" stop-color="#5CF2D5"/>
<stop offset="1" stop-color="#24E5A3"/>
</linearGradient>
</defs>
</svg>
